<svg width="138" height="184" viewBox="0 0 138 184" fill="none" xmlns="http://www.w3.org/2000/svg">
<rect width="138" height="184" fill="white"/>
<rect x="1.17924" y="55.4444" width="135.642" height="113.372" stroke="#FF0000" stroke-width="2.0245"/>
<path d="M62.8544 81.825H58.4329C57.8499 77.3063 54.1572 74.2938 49.2012 74.2938C44.1481 74.2938 41.087 76.8204 41.087 80.6589C41.087 84.7403 45.0226 86.2465 48.9097 87.3154L51.8735 88.1414C59.2589 90.0849 64.1663 91.9799 64.1663 98.3935C64.1663 105.487 57.8499 108.597 50.7074 108.597C42.5932 108.597 37.1514 104.759 36.131 97.3246H40.7955C41.4757 102.232 44.5853 106.216 50.9018 106.216C54.9832 106.216 59.9877 104.516 59.9877 99.511C59.9877 94.798 55.9063 93.5833 51.2905 92.3686L47.7436 91.3968C42.2531 89.9392 37.1028 87.4126 37.1028 81.2905C37.1028 75.0227 43.1763 71.913 49.4441 71.913C55.6634 71.913 61.9799 75.0712 62.8544 81.825ZM70.2793 101.017L81.2116 72.3989H84.6613L96.7112 103.787C97.3914 105.536 97.7801 106.119 99.9666 106.313L100.501 106.362V107.965H87.771V106.362L90.006 106.216C92.484 106.07 92.7755 105.633 91.9981 103.592L89.423 96.8387H74.8466L72.9516 101.989C71.5912 105.585 71.9313 106.119 74.4093 106.265L76.3528 106.362V107.965H65.4205V106.362L66.0035 106.265C68.3358 106.07 68.6273 105.439 70.2793 101.017ZM82.0862 77.5006L75.8183 94.2149H88.4026L82.0862 77.5006ZM38.2507 147.965V146.313L41.0202 146.119C42.0405 146.07 42.3807 145.827 42.3807 145.001V115.703C42.3807 114.877 42.0405 114.634 41.0202 114.585L38.2507 114.391V112.739H51.4666V114.391L48.2112 114.585C47.2395 114.634 46.8508 114.877 46.8508 115.703V145.682H57.2486C61.4758 145.682 62.1074 145.633 62.739 142.232L63.6136 137.567H65.2656V147.965H38.2507ZM69.0452 112.739H96.3031V123.137H94.6511L93.8251 118.375C93.2421 115.12 92.4647 115.023 88.1889 115.023H77.6453V128.579H91.2014V131.057H77.6453V145.682H88.5776C92.8048 145.682 93.485 145.633 94.1166 142.232L94.9912 137.567H96.6432V147.965H69.0452V146.313L71.8147 146.119C72.8351 146.07 73.1752 145.827 73.1752 145.001V115.703C73.1752 114.877 72.8351 114.634 71.8147 114.585L69.0452 114.391V112.739Z" fill="#FF0000"/>
</svg>
