<svg width="100" height="132" viewBox="0 0 100 132" fill="none" xmlns="http://www.w3.org/2000/svg">
<g clip-path="url(#clip0_8619_14566)">
<path d="M31.2645 106.626H21.8979V24.663H31.2645L50.0002 92.575L68.736 24.663H78.1025V106.626H68.736V56.8619L54.6849 106.626H45.3184L31.2672 56.8619V106.626H31.2645Z" fill="black"/>
<path d="M44.7137 5.40703e-05C40.3369 5.40703e-05 35.9241 0.0472056 31.5834 0.238585C28.0026 0.396681 24.4579 1.22877 20.7441 2.79031C17.0635 4.33799 14.0735 6.24624 11.6105 8.62323C10.5177 9.67721 9.35281 10.8865 8.05198 12.3232C5.47807 15.1634 3.48384 18.5029 2.12754 22.2528C0.707446 26.1775 0.0168151 30.3545 0.0140414 35.0225C-0.00260027 52.9956 0.000173351 62.057 0.000173351 74.5826V94.1865C0.000173351 97.9947 0.29695 101.318 0.907146 104.349C1.66434 108.096 2.85145 111.264 4.54059 114.035C7.72192 119.249 11.4413 123.165 15.9124 126.003C16.9719 126.677 18.1258 127.29 19.3434 127.939L20.0534 128.319C21.8369 129.273 23.8977 129.858 25.8586 130.374C28.1635 130.979 30.7457 131.275 33.7523 131.278H36.9864C46.6802 131.289 56.3684 131.298 66.065 131.278C68.6195 131.273 70.9021 131.053 73.0406 130.61C76.7989 129.828 80.2686 128.48 83.3529 126.596C86.5148 124.669 89.3633 122.219 92.0565 119.116C94.5112 116.287 96.4305 113.067 97.7591 109.539C99.2679 105.545 100 101.129 99.9946 96.0338C99.9891 86.487 99.9891 73.9475 99.9918 62.7226V43.2518L99.9863 35.4497C99.9835 32.0464 99.7256 29.2368 99.1736 26.6046C98.2583 22.2306 96.6912 18.5528 94.3808 15.3548C93.2658 13.8127 92.0011 12.2594 90.5089 10.6064C87.1722 6.90636 82.984 4.14661 77.7003 2.1718C75.0126 1.16775 72.2779 0.540909 69.5764 0.313473C67.1883 0.113772 64.6144 0.0111485 61.9628 0.0416583C58.5179 0.0610736 55.0842 0.0444319 51.6449 0.022243C49.3539 0.00837492 47.0379 -0.00549316 44.7081 -0.00549316L44.7137 5.40703e-05ZM64.5644 9.37765C67.2937 9.3832 69.7844 9.64392 72.178 10.182C74.9988 10.8116 77.6559 12.0348 80.0717 13.8099C82.5597 15.6377 84.6953 17.7845 86.4178 20.1892C89.0471 23.8559 90.4617 28.1079 90.6253 32.8258C90.7058 35.1557 90.6808 37.4827 90.6558 39.7294C90.6448 40.7806 90.6337 41.8345 90.6337 42.8857V59.4886C90.6337 69.8952 90.6337 76.7627 90.6226 92.6111V92.8025C90.6226 95.271 90.617 97.82 90.3951 100.405C90.0262 104.679 88.4924 108.551 85.8353 111.913C84.4429 113.674 82.2435 116.242 79.2341 118.22C75.9474 120.383 72.2252 121.598 67.865 121.931C66.9248 122.003 66.0234 122.009 65.1857 122.011L34.7453 122.017H34.7342C29.2868 122.017 24.8296 120.799 21.1019 118.3C13.9404 113.494 10.049 106.978 9.53864 98.935C9.46653 97.7923 9.43047 96.6717 9.4277 95.5983C9.42215 84.9892 9.42215 70.5969 9.42215 58.5483V35.1307C9.4166 31.2754 9.99074 27.8943 11.1723 24.7962C12.3261 21.7757 14.1678 19.0798 16.8083 16.5613C19.3933 14.09 22.0393 12.3288 24.8962 11.175C27.398 10.1626 29.872 9.7937 31.514 9.60509C32.8204 9.45254 34.2127 9.38043 35.7715 9.37765C45.3655 9.36101 54.9649 9.36379 64.5644 9.37765Z" fill="black"/>
</g>
<defs>
<clipPath id="clip0_8619_14566">
<rect width="100" height="131.289" fill="white"/>
</clipPath>
</defs>
</svg>
