<svg width="800" height="126" viewBox="0 0 800 126" fill="none" xmlns="http://www.w3.org/2000/svg">
<g clip-path="url(#clip0_8619_14557)">
<path d="M14.3015 125.148H0V0H14.3015L42.9088 103.693L71.5118 0H85.8134V125.148H71.5118V49.1639L50.0574 125.148H35.7559L14.3015 49.1639V125.148Z" fill="black"/>
<path d="M102.025 30.0345C102.025 13.4079 115.615 0 132.241 0H157.63C174.435 0 187.847 13.4079 187.847 30.0345V94.7534C187.847 111.558 174.439 125.148 157.63 125.148H132.241C115.615 125.148 102.029 111.562 102.029 94.7534V30.0345H102.025ZM132.241 14.3015C123.661 14.3015 116.331 21.4544 116.331 30.0345V94.7534C116.331 103.693 123.661 110.842 132.241 110.842H157.63C166.392 110.842 173.541 103.689 173.541 94.7534V30.0345C173.541 21.4544 166.388 14.3015 157.63 14.3015H132.241Z" fill="black"/>
<path d="M204.054 0H259.655C276.459 0 289.871 13.4079 289.871 30.0345V94.7534C289.871 111.558 276.463 125.148 259.655 125.148H204.054V0ZM218.355 14.3015V110.846H259.655C268.417 110.846 275.566 103.693 275.566 94.7576V30.0345C275.566 21.4544 268.413 14.3015 259.655 14.3015H218.355Z" fill="black"/>
<path d="M391.892 69.7247H320.38V110.846H391.892V125.148H306.075V0H391.892V14.3015H320.38V55.4231H391.892V69.7247Z" fill="black"/>
<path d="M479.616 30.2166C479.616 21.6365 472.285 14.3058 463.527 14.3058H438.32C429.74 14.3058 422.41 21.4586 422.41 30.2166C422.41 57.926 493.921 55.2453 493.921 94.7576C493.921 111.562 480.513 125.152 463.705 125.152H438.498C421.694 125.152 408.104 111.384 408.104 94.7576V89.214H422.405V94.7576C422.405 103.52 429.736 110.846 438.494 110.846H463.701C472.641 110.846 479.611 103.693 479.611 94.7576C479.611 67.0482 408.1 70.0846 408.1 30.2166C408.1 13.59 421.685 0 438.312 0H463.519C480.323 0 493.913 13.5858 493.913 30.2166V35.7602H479.611V30.2166H479.616Z" fill="black"/>
<path d="M595.946 69.7247H524.434V110.846H595.946V125.148H510.128V0H595.946V14.3015H524.434V55.4231H595.946V69.7247Z" fill="black"/>
<path d="M697.971 125.148H683.67L626.459 28.4252V125.148H612.158V0H626.459L683.67 96.5448V0H697.971V125.148Z" fill="black"/>
<path d="M785.694 30.2166C785.694 21.6365 778.364 14.3058 769.606 14.3058H744.399C735.819 14.3058 728.488 21.4586 728.488 30.2166C728.488 57.926 800 55.2453 800 94.7576C800 111.562 786.592 125.152 769.784 125.152H744.577C727.773 125.152 714.182 111.384 714.182 94.7576V89.214H728.484V94.7576C728.484 103.52 735.815 110.846 744.573 110.846H769.779C778.719 110.846 785.69 103.693 785.69 94.7576C785.69 67.0482 714.178 70.0846 714.178 30.2166C714.178 13.59 727.764 0 744.391 0H769.597C786.402 0 799.992 13.5858 799.992 30.2166V35.7602H785.69V30.2166H785.694Z" fill="black"/>
</g>
<defs>
<clipPath id="clip0_8619_14557">
<rect width="800" height="125.148" fill="white"/>
</clipPath>
</defs>
</svg>
